<svg id="Layer_1" data-name="Layer 1" xmlns="http://www.w3.org/2000/svg" viewBox="0 0 92.05 74.81"><defs><style>.cls-1{fill:#a63323;}</style></defs><path class="cls-1" d="M58.1,4.87c.58,3,2.11,4.82,3.75,4.59a1.17,1.17,0,0,1,.66,0,2.51,2.51,0,0,1-.1.8,2.41,2.41,0,0,0,0,1.13c.07.25.23.77.34,1.16a3.7,3.7,0,0,0,2.69,2.76A4.05,4.05,0,0,0,68.63,15c.6-.26,1.11-.4,1.12-.31a3.7,3.7,0,0,1-.6,1,11.87,11.87,0,0,0-1.83,4.64c0,.47-.18,1.41-.28,2.09a16.26,16.26,0,0,0-.22,2A5.79,5.79,0,0,1,66,27.06a20.39,20.39,0,0,0-1.45,5.08c-.1.49-.28,1.3-.4,1.79-.27,1.11-.24,1.6.09,1.83.61.41,1.28,0,1.69-1.09a3.25,3.25,0,0,1,.64-1,6.28,6.28,0,0,0,.82-1.06c.21-.35.95-1.54,1.64-2.64a25.57,25.57,0,0,0,1.86-3.46,13.16,13.16,0,0,1,.67-1.42,3.17,3.17,0,0,1,.38.64,2.37,2.37,0,0,0,2,1.52,11.45,11.45,0,0,0,3.41-1.58,7.87,7.87,0,0,0,1.36-1.27c.85-1.07,1-1.16,1.44-.84a2.62,2.62,0,0,0,2.19.55,7.12,7.12,0,0,0,2.41-1.3c1.64-1.34,2.11-1.57,2.35-1.15.09.15,0,.53-.41,1.6-.9,2.36-1,4.35-.19,5.95.54,1.16,1.21,1.7,2.08,1.71,1.12,0,1.14.19.15,1.09a7.24,7.24,0,0,0-2.19,4,3.8,3.8,0,0,0,.53,2.29,10.17,10.17,0,0,0,2.61,2,7.22,7.22,0,0,0,1.93.27c1.66.05,1.82.21.68.71-.46.2-1.06.48-1.33.62a30.33,30.33,0,0,0-3.57,2.69,7.83,7.83,0,0,1-.8.66,16.53,16.53,0,0,0-1.47,1.37c-.52.55-1,1-1.11,1.1A14.08,14.08,0,0,0,82.89,49c-.55.62-1.37,1.5-1.81,2s-1.15,1.27-1.55,1.79c-.67.87-.71.95-.64,1.29.13.6.72.92,4.52,2.39,2,.76,4.41,1.79,5.46,2.28a12.55,12.55,0,0,0,4.81,1.48c1,0,1.09,0,1,.22-.13.35-1.13.75-2.74,1.14a28.35,28.35,0,0,0-5.74,2,1,1,0,0,0-.44,1.18,1.85,1.85,0,0,1,.11.45,6.79,6.79,0,0,1-.89.24,12,12,0,0,0-3.55,1.64c-1,.7-1.18,1.17-.73,2.06.33.64.33.66,0,.79A6.3,6.3,0,0,1,79,70c-.75,0-2,0-2.81.11a13.72,13.72,0,0,1-5.07-.23c-.6-.31-1-.29-2.26.13-.92.3-1.48.72-1.53,1.14a6.1,6.1,0,0,0,.47,1.38A14.08,14.08,0,0,0,72,77.63c.4.26.6.47.56.58s-1,.29-1.92.1a17.36,17.36,0,0,0-3.72-.37A29,29,0,0,1,61,77.29a16.15,16.15,0,0,0-5.55-.83,27.93,27.93,0,0,1-3.3-.14l-1.65-.18v0l-2.25-.23s0,0,0,0a2.4,2.4,0,0,0-.79.13c-1.33.36-2.25.31-6.19-.3a20.64,20.64,0,0,0-4.53-.06,43.09,43.09,0,0,1-4.86.08,24.14,24.14,0,0,0-5.1.3,16.47,16.47,0,0,0-2.32.73,4.64,4.64,0,0,1-1.36.38c0-.06.09-.27.29-.47,3.14-3.28,5-6.12,4.65-7.17-.11-.36-3.8-1.53-5.3-1.69-.66-.07-1.63-.19-2.16-.27a20.38,20.38,0,0,0-4.48,0,4.13,4.13,0,0,1-1,.08c-.19-.07,0-.48.49-1.1a2.68,2.68,0,0,0,.38-2.73c-.36-1-.84-1.36-2.44-2.05l-1.4-.58a1.51,1.51,0,0,1,.16-.67c.4-1.06,0-1.87-1.51-3.09a22.92,22.92,0,0,0-5.58-3,20.23,20.23,0,0,1-2.5-1.13c0-.14,1-.26,3.08-.38a23.84,23.84,0,0,0,5.46-1.17,9.07,9.07,0,0,1,1.67-.42,8.92,8.92,0,0,0,1.55-.41A7,7,0,0,1,16,50.53c.39,0,1.18-.17,1.73-.29a6.36,6.36,0,0,1,1.13-.18A1.91,1.91,0,0,0,20,49.59c.25-.66-1.84-5-3.07-6.42a22.74,22.74,0,0,1-1.44-1.87,38.21,38.21,0,0,0-3.75-4.45,8.53,8.53,0,0,0-2-1c-.85-.35-1.65-.71-1.79-.8s-.23-.21-.2-.27a6,6,0,0,1,1.61-.28c2.8-.29,3.68-.58,4.82-1.55A5.91,5.91,0,0,0,15.8,30.4,4.42,4.42,0,0,0,15.75,27a9.53,9.53,0,0,0-2.05-4A3.6,3.6,0,0,1,13,22c0-.09.24-.16.47-.15h.81a2.83,2.83,0,0,0,1.86-1c.57-.56.65-.69,1.2-2.16a4.88,4.88,0,0,0,.53-2.75,22.47,22.47,0,0,0-.31-2.69,7.9,7.9,0,0,1-.18-1.75c.18-.46.61-.16,2.43,1.74a8.27,8.27,0,0,0,3.31,2.41c.65.16.75.16.92-.11.33-.49.39-.55.57-.48a1.51,1.51,0,0,1,.45.55,23.42,23.42,0,0,0,2.52,3.67,1.07,1.07,0,0,0,1.07.39,3.66,3.66,0,0,0,3-1.85c.29-.44.45-.24.59.76a6.55,6.55,0,0,0,.53,1.68A18.29,18.29,0,0,0,34.25,23a13.93,13.93,0,0,1,1,2.18,11.78,11.78,0,0,0,2.57,4.28,5.52,5.52,0,0,1,.61,1c.33.69.69.89,1,.55a3.3,3.3,0,0,0,.42-1.79A14.23,14.23,0,0,1,40.44,27,8.28,8.28,0,0,0,41,23.83c0-.73.07-1.7.12-2.16a26.66,26.66,0,0,0-.07-5.35c-.55-4.23-.56-4.18.45-3.14a5.11,5.11,0,0,0,2.73,1.6A7.92,7.92,0,0,0,48,14.17a6,6,0,0,0,2.51-4.79c0-1,.16-1.18.73-.73.34.27.45.29,1,.19a4.26,4.26,0,0,0,2.47-1.38,9.71,9.71,0,0,0,2-3C57.36,3.2,57.81,3.33,58.1,4.87Z" transform="translate(-2.67 -3.61)"/></svg>